<svg xmlns="http://www.w3.org/2000/svg" viewBox="0 0 219 219"><defs><style>.cls-1{fill:#20a849;}.cls-2{fill:#fff;}</style></defs><g id="Layer_2" data-name="Layer 2"><g id="Layer_1-2" data-name="Layer 1"><path class="cls-1" d="M109.5,0h82.12A27.37,27.37,0,0,1,219,27.37V109.5A109.5,109.5,0,0,1,109.5,219h0A109.5,109.5,0,0,1,0,109.5v0A109.5,109.5,0,0,1,109.5,0Z"/><path class="cls-2" d="M150.57,126.28a52.22,52.22,0,0,1-17.73-2.92c-2.14-1.29-5-.76-7.09,1.36l-10.39,10.4c-13.7-7.61-24.81-18.69-31.49-31.43L94.76,93.28,95,93a8,8,0,0,0,1.23-6.62,56.59,56.59,0,0,1-3-17.94,6.54,6.54,0,0,0-6.83-6.84h-18a6.55,6.55,0,0,0-6.84,6.84,89.08,89.08,0,0,0,89,89,6.54,6.54,0,0,0,6.83-6.83V133.11A6.54,6.54,0,0,0,150.57,126.28Z"/></g></g></svg>