<svg xmlns="http://www.w3.org/2000/svg" viewBox="0 0 70.69 70.7"><defs><style>.cls-1{fill:#20a849;}.cls-2{fill:#fff;fill-rule:evenodd;}</style></defs><g id="Layer_2" data-name="Layer 2"><g id="Layer_1-2" data-name="Layer 1"><path class="cls-1" d="M70.69,9.06A9.06,9.06,0,0,0,61.63,0H35.26V0A35.34,35.34,0,1,0,70.69,35.36s0-.09,0-.14h0Z"/><path id="Fill-1-Copy" class="cls-2" d="M51.85,31.5c0-.16,0-.32,0-.48a10.58,10.58,0,0,0-.07-1.27c-1-9.49-13.3-12.29-16.45-1.45-3.14-10.84-15.43-8-16.45,1.45,0,.41-.06.84-.06,1.27,0,.16,0,.32,0,.48s0,.14,0,.21,0,.16,0,.23c.91,10.21,16.47,20.57,16.47,20.57S50.91,42.15,51.82,31.94a1.48,1.48,0,0,0,0-.21A1.64,1.64,0,0,0,51.85,31.5Z"/></g></g></svg>